PathFileType	3	(X/Y/Z)	D:\minhoCalibration\240510\subject2_KPNP\preferred\preferred14.trc
DataRate	CameraRate	NumFrames	NumMarkers	Units	OrigDataRate	OrigDataStartFrame	OrigNumFrames
200.0	200.0	18	10	mm	200.0	444	191	
Frame#	Time	Left_Ankle_Outer1			Left_Ankle_Inner1			Left_Knee_Outer1			Left_Knee_Inner1			Left_Wrist1			Right_Wrist1			Right_Knee_Inner1			Right_Knee_Outer1			Right_Ankle_Inner1			Right_Ankle_Outer1			
		X1	Y1	Z1	X2	Y2	Z2	X3	Y3	Z3	X4	Y4	Z4	X5	Y5	Z5	X6	Y6	Z6	X7	Y7	Z7	X8	Y8	Z8	X9	Y9	Z9	X10	Y10	Z10	
444	2.21	-657.87091	109.31876	-718.07367	-654.4632	111.36674	-661.26556	-497.03323	521.42194	-762.01337	-517.45453	506.89352	-668.00281	-529.73242	960.91754	-843.85992	-615.41077	1152.1079	-569.02686	-416.72775	843.93488	-242.38593	-471.0502	913.01459	-211.86127	-484.66714	539.78088	25.248968	-538.96716	600.14478	82.893181
445	2.215	-658.35236	108.35021	-718.25726	-655.12817	110.32742	-661.32153	-498.14285	520.36945	-762.57965	-518.35254	505.94617	-668.55579	-528.77991	960.65259	-844.00378	-617.1192	1149.5233	-568.54138	-420.31339	835.26892	-244.55293	-475.20847	903.612	-213.16248	-491.1044	524.80029	15.18546	-546.40698	583.83527	73.470482
446	2.22	-658.85205	107.23463	-718.54761	-655.18274	108.98999	-662.68079	-499.45343	519.27289	-763.19928	-519.30927	504.93045	-669.21875	-527.21118	961.01257	-844.54132	-619.02954	1147.2455	-567.79333	-424.03101	826.63873	-246.91667	-479.62204	894.03723	-214.60622	-497.76535	510.1474	4.8540874	-553.91553	567.69604	63.793159
447	2.225	-659.2594	106.11897	-718.93311	-655.97705	106.91799	-664.40411	-500.82797	518.25806	-764.04071	-520.24097	503.98065	-669.90668	-525.85187	961.15674	-845.01837	-620.76038	1144.2676	-567.43689	-427.81796	817.9472	-249.49881	-484.2811	884.36023	-216.25603	-504.52917	495.78775	-5.7764854	-561.18854	551.8717	53.68515
448	2.23	-659.81439	105.21459	-719.64014	-656.31494	107.0387	-663.78394	-502.39868	517.31818	-764.85791	-521.23004	503.0759	-670.69977	-524.44147	961.27301	-845.27924	-623.39954	1141.5619	-567.27856	-431.69141	809.2373	-252.18457	-489.07602	874.51404	-218.19576	-511.83575	481.47513	-16.17988	-569.11554	536.49835	43.735413
449	2.235	-660.2088	104.12376	-720.35266	-656.80664	105.88615	-664.74634	-504.10675	516.39783	-765.76587	-522.19501	502.17975	-671.44885	-523.22388	961.53308	-845.53571	-625.38977	1139.3077	-566.70752	-435.67242	800.47412	-255.05251	-493.97342	864.61401	-220.36371	-518.57227	467.40622	-27.633228	-576.66113	521.26013	33.114662
450	2.24	-660.52997	103.23407	-721.13776	-657.67053	104.12741	-666.32324	-505.8006	515.60449	-766.61517	-523.26135	501.27774	-672.27582	-521.87463	961.74249	-845.84998	-627.59515	1136.6949	-566.38202	-439.7905	791.61035	-258.17618	-498.97876	854.66321	-222.88275	-525.67212	453.63379	-39.020485	-584.28448	506.15585	22.443409
451	2.245	-660.54602	101.94849	-721.69647	-657.94244	104.15348	-665.92133	-507.39569	514.88934	-767.53589	-524.35309	500.46182	-672.99792	-520.45551	961.99628	-846.00397	-629.79645	1134.2909	-566.22168	-443.99594	782.64459	-261.53763	-503.96292	844.65527	-225.65877	-532.68256	440.09372	-50.721886	-591.9823	491.59702	11.410813
452	2.25	-660.77393	101.0542	-722.52911	-658.3476	102.84035	-667.8866	-508.98917	514.22388	-768.29773	-525.49738	499.71155	-673.65576	-518.97034	962.22644	-846.21326	-631.50574	1131.7218	-566.11047	-448.37595	773.53284	-265.0416	-509.02695	834.65546	-228.70633	-536.86725	427.78616	-65.037598	-599.8219	477.05881	0.15271293
453	2.255	-661.03021	100.12646	-723.38196	-658.69415	102.67236	-667.96161	-509.92722	513.93134	-769.31934	-526.74518	498.99835	-674.27753	-517.48517	962.47528	-846.45056	-633.21075	1129.3275	-566.20917	-452.8855	764.39911	-268.77505	-514.09497	824.66998	-232.05017	-544.86127	413.74649	-76.573685	-606.57312	462.67484	-12.87872
454	2.26	-661.35474	99.317802	-724.21173	-659.14008	102.02462	-668.73187	-511.68655	513.05725	-769.52155	-527.99493	498.39322	-674.79419	-516.47601	962.38123	-846.01117	-634.89954	1126.908	-566.52441	-457.64346	755.20831	-272.75067	-519.21979	814.85278	-235.60915	-553.41241	400.66806	-87.327225	-614.31738	448.82632	-24.444828
455	2.265	-661.55811	98.561417	-724.8739	-659.84015	101.17165	-669.42786	-512.44403	512.79797	-770.19464	-529.35803	497.85364	-675.26849	-514.53467	963.04193	-846.86914	-636.36548	1124.738	-566.67419	-462.67548	746.00793	-276.93658	-524.44971	805.13971	-239.33559	-560.3606	388.12726	-99.715797	-622.78339	434.67984	-35.979206
456	2.27	-661.82721	97.858574	-725.41956	-660.82153	99.626579	-670.48138	-513.5885	511.96371	-770.45197	-530.7179	497.40894	-675.62134	-513.34924	963.25879	-846.77869	-638.11273	1122.5294	-567.02094	-467.60379	736.95715	-281.37683	-529.83429	795.50244	-243.24268	-566.89148	375.78336	-112.69119	-630.03571	421.0159	-49.186939
457	2.275	-662.0874	97.134567	-725.88617	-660.77771	99.268738	-670.95667	-514.06964	511.65335	-770.82556	-532.15247	497.01355	-675.98883	-512.03638	963.56549	-846.90576	-639.57385	1120.4698	-567.24078	-472.97537	727.90869	-286.08694	-535.34332	785.91772	-247.34865	-571.25757	364.06183	-127.92653	-637.27631	406.4541	-64.384773
458	2.28	-662.32666	96.526993	-726.21637	-660.85181	99.240715	-670.93262	-514.71075	510.99078	-771.11951	-533.48364	496.7207	-676.20544	-510.87494	963.88684	-847.00757	-641.35431	1118.6788	-567.52185	-478.46207	718.94281	-291.01596	-540.99915	776.41608	-251.64059	-577.51929	352.26013	-141.44873	-645.78607	394.58545	-74.809639
459	2.285	-662.63562	95.986404	-726.48865	-661.74097	99.058632	-670.32037	-514.81293	510.84583	-771.47174	-534.70483	496.4295	-676.3869	-509.76599	964.3313	-847.16925	-642.67389	1116.7535	-567.58344	-483.86063	710.17712	-296.08557	-546.72168	766.93597	-256.16266	-585.98071	340.64124	-152.8734	-653.30878	380.72961	-90.223473
460	2.29	-662.88318	95.354759	-726.67151	-662.11829	97.724312	-671.52539	-515.11169	510.25128	-771.61145	-535.79291	496.20673	-676.53119	-508.69489	964.76758	-847.22778	-644.03394	1114.84	-567.67346	-489.00604	701.58453	-301.39087	-552.67944	757.60651	-260.93094	-590.42328	329.86429	-168.61525	-660.40625	367.47061	-106.12554
461	2.295	-663.07233	94.832504	-726.78723	-662.07251	97.933624	-670.50348	-515.04913	510.00034	-771.73975	-536.97662	496.04883	-676.63354	-507.72696	965.19373	-847.37207	-645.38385	1112.9702	-567.72516	-494.33789	693.14551	-306.88647	-558.6571	748.08978	-266.28177	-596.71783	319.24689	-182.83685	-668.16364	355.742	-119.77755
